HIERARCHY
ROOT Hips
{
  OFFSET 0 0 0
  CHANNELS 6 Xposition Yposition Zposition Zrotation Yrotation Xrotation
  JOINT LeftThigh
  {
    OFFSET 8.409438 0 -5.917753
    CHANNELS 3 Zrotation Yrotation Xrotation
    JOINT LeftLeg
    {
      OFFSET 0 0 -42.358652
      CHANNELS 3 Zrotation Yrotation Xrotation
      JOINT LeftFoot
      {
        OFFSET 0 0 -39.357303
        CHANNELS 3 Zrotation Yrotation Xrotation
      }
    }
  }
  JOINT RightThigh
  {
    OFFSET -8.409438 0 -5.917753
    CHANNELS 3 Zrotation Yrotation Xrotation
    JOINT RightLeg
    {
      OFFSET 0 0 -42.358652
      CHANNELS 3 Zrotation Yrotation Xrotation
      JOINT RightFoot
      {
        OFFSET 0 0 -39.357303
        CHANNELS 3 Zrotation Yrotation Xrotation
      }
    }
  }
  JOINT SpineLow
  {
    OFFSET 0 0 4.719101
    CHANNELS 3 Zrotation Yrotation Xrotation
    JOINT SpineMid
    {
      OFFSET 0 0 12.899191
      CHANNELS 3 Zrotation Yrotation Xrotation
      JOINT Chest
      {
        OFFSET 0 0 12.899191
        CHANNELS 3 Zrotation Yrotation Xrotation
        JOINT LeftShoulder
        {
          OFFSET 7.550562 1.41573 9.438202
          CHANNELS 3 Zrotation Yrotation Xrotation
          JOINT LeftArm
          {
            OFFSET 9.155056 0 4.247191
            CHANNELS 3 Zrotation Yrotation Xrotation
            JOINT LeftForearm
            {
              OFFSET 0 0 25.771955
              CHANNELS 3 Zrotation Yrotation Xrotation
              JOINT LeftHand
              {
                OFFSET 0 0 25.197169
                CHANNELS 3 Zrotation Yrotation Xrotation
              }
            }
          }
        }
        JOINT RightShoulder
        {
          OFFSET -7.550562 1.41573 9.438202
          CHANNELS 3 Zrotation Yrotation Xrotation
          JOINT RightArm
          {
            OFFSET -9.155056 0 4.247191
            CHANNELS 3 Zrotation Yrotation Xrotation
            JOINT RightForearm
            {
              OFFSET 0 0 -25.771955
              CHANNELS 3 Zrotation Yrotation Xrotation
              JOINT RightHand
              {
                OFFSET 0 0 -25.197169
                CHANNELS 3 Zrotation Yrotation Xrotation
              }
            }
          }
        }
        JOINT Neck
        {
          OFFSET 0 0 15.101124
          CHANNELS 3 Zrotation Yrotation Xrotation
          JOINT Head
          {
            OFFSET 0 0 11.325843
            CHANNELS 3 Zrotation Yrotation Xrotation
            End Site
            {
              OFFSET 0 0 14.157303
            }
          }
        }
      }
    }
  }
}
MOTION
Frames: 10
Frame Time: 0.0
0.0  89.887642  0.0  -0.334133  -12.491683  -95.353715  11.325833  -13.056564  -0.734722  -2.308308  2.948088  23.684802  3.66425  1.794875  2.200869  -2.885703  7.991219  -8.025423  0.986279  6.22266  17.612577  5.597878  1.159487  0.331781  1.436813  -1.033747  0.274969  3.917789  -2.840798  0.690257  3.917789  -2.840798  0.690257  -8.008493  26.368009  5.706701  132.885037  38.036264  -174.979339  -9.563596  2.066343  40.635933  77.819602  -2.276403  4.295832  -4.339757  5.070651  21.167147  64.31895  28.989796  26.563948  11.473668  1.721569  -41.549761  101.426993  3.447793  -18.469755  -12.07832  4.678273  0.068568  -9.054221  3.508972  0.144127  
0.0  89.887642  0.0  -0.337659  -12.595889  -95.43544  11.346935  -13.07807  -0.54404  -2.221331  2.897686  23.617812  3.640355  1.781945  2.175613  -2.801281  8.013856  -7.899422  0.963979  6.234521  17.521534  5.555664  1.13306  0.340589  1.43404  -1.03436  0.282859  3.909861  -2.842913  0.711909  3.909861  -2.842913  0.711909  -8.041181  26.341342  5.708761  133.067784  37.925222  -174.896441  -9.475539  1.977514  40.503314  77.806813  -2.361554  4.335808  -4.259953  5.002054  21.164446  64.814561  29.141352  26.792436  11.262849  1.557658  -41.585206  101.17551  3.458675  -18.325028  -12.029006  4.688109  0.053911  -9.017125  3.516634  0.13295  
0.0  89.887642  0.0  -0.324034  -12.690456  -95.53016  11.348593  -13.06838  -0.353093  -2.109627  2.825823  23.560932  3.620957  1.775442  2.158035  -2.728354  8.030025  -7.761242  0.954706  6.23149  17.432831  5.54065  1.127179  0.355863  1.434423  -1.035098  0.295382  3.910361  -2.845671  0.746086  3.910361  -2.845671  0.746086  -8.055518  26.342341  5.727084  133.170861  37.853544  -174.820049  -9.508119  1.934513  40.361727  77.816154  -2.365189  4.29875  -4.227577  4.987146  21.125896  65.059168  29.297206  26.851474  11.257357  1.446857  -41.607756  101.122954  3.489819  -18.263803  -11.960863  4.695524  0.042547  -8.965942  3.522407  0.124048  
0.0  89.887642  0.0  -0.30727  -12.793117  -95.627857  11.462999  -13.090724  -0.12268  -2.051255  2.786598  23.476611  3.583368  1.753587  2.122272  -2.651214  8.061446  -7.609831  0.968141  6.225479  17.346902  5.50042  1.107644  0.356473  1.422783  -1.033103  0.299416  3.878369  -2.840333  0.757735  3.878369  -2.840333  0.757735  -7.999306  26.328481  5.800161  133.443018  37.765566  -174.723283  -9.414527  1.825498  40.254571  77.839099  -2.493101  4.317869  -4.159082  4.947015  21.17042  65.612544  29.416687  27.09814  11.09415  1.310662  -41.690776  100.801063  3.506022  -18.071326  -11.900905  4.701592  0.049841  -8.921044  3.526806  0.129175  
0.0  89.887642  0.0  -0.284289  -12.902705  -95.721199  11.529511  -13.078191  0.063682  -1.962284  2.720703  23.417081  3.562118  1.73974  2.105078  -2.608818  8.086043  -7.475269  0.991802  6.217055  17.250603  5.490132  1.099654  0.371281  1.425601  -1.030321  0.311477  3.885578  -2.833469  0.790748  3.885578  -2.833469  0.790748  -8.004376  26.316735  5.832411  133.612963  37.717042  -174.617208  -9.479453  1.786284  40.13035  77.888385  -2.515351  4.242468  -4.09557  4.912889  21.21539  65.74817  29.606727  27.114154  11.117517  1.234628  -41.777085  100.751512  3.528835  -18.001731  -11.835681  4.695542  0.047077  -8.872144  3.522308  0.126481  
0.0  89.887642  0.0  -0.240912  -12.98241  -95.794511  11.636551  -13.070475  0.242713  -1.950623  2.684698  23.326913  3.554079  1.738458  2.093479  -2.54488  8.155176  -7.35305  1.02449  6.179813  17.168048  5.376583  1.077811  0.371606  1.41044  -1.024765  0.309287  3.844258  -2.817988  0.785733  3.844258  -2.817988  0.785733  -7.943468  26.328148  5.925561  134.030452  37.670065  -174.486566  -9.407124  1.708745  40.055583  77.953851  -2.661082  4.248838  -3.988664  4.887923  21.333406  66.186753  29.730387  27.314215  10.973776  1.14022  -41.917006  100.468628  3.537836  -17.837931  -11.75464  4.700358  0.072567  -8.811584  3.525417  0.145063  
0.0  89.887642  0.0  -0.211982  -13.118005  -95.894426  11.786955  -13.073863  0.43167  -1.931324  2.644327  23.25349  3.538991  1.726749  2.079018  -2.502939  8.186099  -7.238297  1.052385  6.166607  17.107042  5.361456  1.07569  0.377246  1.414384  -1.024448  0.319347  3.854617  -2.817754  0.813086  3.854617  -2.817754  0.813086  -7.917954  26.341333  5.988767  134.318955  37.663933  -174.331584  -9.487624  1.711097  39.95376  78.017624  -2.693969  4.140241  -3.906573  4.875572  21.423557  66.270746  29.898218  27.318148  11.01739  1.093989  -42.05481  100.400823  3.547374  -17.77854  -11.682655  4.703779  0.085959  -8.757722  3.527718  0.154615  
0.0  89.887642  0.0  -0.147668  -13.405287  -96.066397  12.049604  -13.071107  0.669483  -1.978464  2.601171  23.151968  3.585857  1.748044  2.106691  -2.266634  8.255683  -7.044645  1.029487  6.143094  17.035333  5.319736  1.062099  0.386543  1.448507  -1.020422  0.342838  3.946973  -2.808548  0.87608  3.946973  -2.808548  0.87608  -7.921325  26.328494  6.028776  134.723784  37.640434  -174.164278  -9.43551  1.696581  39.914311  78.077691  -2.796943  4.069992  -3.87451  4.860788  21.515721  66.6665  30.0001  27.5024  10.838813  0.973715  -42.24238  100.067305  3.500699  -17.587485  -11.681686  4.695079  0.08359  -8.756994  3.521236  0.152664  
0.0  89.887642  0.0  -0.118073  -13.57585  -96.141415  12.239474  -13.079111  0.82982  -1.986582  2.573598  23.078948  3.578961  1.745579  2.10194  -2.243171  8.286409  -6.975739  1.078664  6.124902  16.988842  5.310506  1.059476  0.399584  1.452597  -1.018608  0.347949  3.957959  -2.80395  0.889987  3.957959  -2.80395  0.889987  -7.881034  26.320901  6.055606  135.087181  37.638422  -174.004785  -9.511384  1.734123  39.818729  78.162086  -2.813988  3.938462  -3.741922  4.839942  21.627674  66.714428  30.15483  27.510905  10.883443  0.889675  -42.421813  99.993968  3.465678  -17.530158  -11.589819  4.699516  0.117649  -8.688386  3.523907  0.177581  
0.0  89.887642  0.0  -0.055006  -13.83891  -96.249127  12.36952  -13.05666  0.963858  -1.987827  2.547896  23.014591  3.666058  1.76991  2.159401  -2.069562  8.355259  -6.877464  1.109002  6.114773  16.955  5.232156  1.045354  0.404036  1.462597  -1.01512  0.352172  3.985163  -2.794801  0.901312  3.985163  -2.794801  0.901311  -7.766495  26.322009  6.12056  135.438906  37.639756  -173.853929  -9.505952  1.749349  39.731215  78.199663  -2.810205  3.772775  -3.525436  4.836227  21.809888  66.980255  30.245456  27.629084  10.692678  0.752689  -42.612596  99.70712  3.383028  -17.380199  -11.493032  4.714499  0.177401  -8.616271  3.534019  0.221924  
